<?xml version="1.0" encoding="utf-8"?>
<svg viewBox="239 193.053 22 39.551" xmlns="http://www.w3.org/2000/svg">
  <path id="Tracé_7648" data-name="Tracé 7648" d="M 260.821 212.687 C 260.912 206.646 255.937 201.754 249.898 201.946 C 241.661 201.929 236.495 210.836 240.599 217.977 C 243.777 223.506 251.053 225.046 256.198 221.279 C 256.52 221.047 256.867 220.851 257.212 220.631 C 257.384 220.858 257.542 220.971 257.536 221.073 C 257.442 222.616 258.359 222.793 259.599 222.727 C 261.099 222.649 260.814 221.569 260.823 220.688 C 260.843 218.021 260.842 215.354 260.821 212.687 Z M 250.055 220.425 C 245.926 220.353 242.61 216.996 242.588 212.866 C 242.325 208.57 245.742 204.944 250.046 204.951 L 250.068 204.951 C 254.241 204.995 257.597 208.396 257.587 212.569 C 257.591 212.702 257.591 212.832 257.587 212.958 C 257.427 217.04 254.134 220.301 250.051 220.423 L 250.055 220.425 Z" style="fill: rgb(15, 27, 92);"/>
  <rect id="Rectangle_166" data-name="Rectangle 166" width="22" height="2.759" rx="0.272" fill="#113bc9" x="239" y="229.845"/>
  <path id="Tracé_591" data-name="Tracé 591" d="M 239.048 193.053 L 260.952 193.053 C 260.979 193.053 261 193.133 261 193.23 L 261 195.676 C 261 195.774 260.979 195.853 260.952 195.853 L 239.048 195.853 C 239.022 195.853 239 195.774 239 195.676 L 239 193.23 C 239 193.133 239.022 193.053 239.048 193.053 Z" fill="#fe8403"/>
</svg>